<svg width="1" height="1" viewBox="-3 0 22 3" fill="none" xmlns="http://www.w3.org/2000/svg">
<path fill-rule="evenodd" clip-rule="evenodd" d="M2.82353 1.58823C2.82353 2.36793 2.19146 3 1.41176 3C0.632069 3 0 2.36793 0 1.58823C0 0.808536 0.632069 0.176468 1.41176 0.176468C2.19146 0.176468 2.82353 0.808536 2.82353 1.58823ZM9.41177 1.58823C9.41177 2.36793 8.7797 3 8 3C7.2203 3 6.58824 2.36793 6.58824 1.58823C6.58824 0.808536 7.2203 0.176468 8 0.176468C8.7797 0.176468 9.41177 0.808536 9.41177 1.58823ZM14.5882 3C15.3679 3 16 2.36793 16 1.58823C16 0.808536 15.3679 0.176468 14.5882 0.176468C13.8085 0.176468 13.1765 0.808536 13.1765 1.58823C13.1765 2.36793 13.8085 3 14.5882 3Z" fill="#D9D9D9"/>
</svg>
