<svg width="238" height="50" viewBox="0 0 238 50" fill="none" xmlns="http://www.w3.org/2000/svg">
<path d="M14.9663 26.627C14.9663 28.7536 14.6909 30.9185 14.1401 33.1216C13.6047 35.3094 12.8473 37.4284 11.8682 39.4785C10.9043 41.5439 9.74154 43.4717 8.37988 45.2617C7.01823 47.0518 5.51888 48.6123 3.88184 49.9434L0.347656 47.8091C1.26562 46.5545 2.06885 45.1317 2.75732 43.5405C3.4458 41.9494 4.01953 40.297 4.47852 38.5835C4.9375 36.87 5.28174 35.1488 5.51123 33.4199C5.74072 31.6911 5.85547 30.0464 5.85547 28.4858V3.95312H14.9663V26.627ZM54.3472 20.4307C54.3472 22.0371 54.133 23.5671 53.7046 25.0205C53.2762 26.4587 52.6719 27.7897 51.8916 29.0137C51.1266 30.2376 50.2087 31.3468 49.1377 32.3413C48.0667 33.3205 46.881 34.1543 45.5806 34.8428C44.2954 35.5312 42.9108 36.0667 41.4268 36.4492C39.958 36.8164 38.4434 37 36.8828 37H22.3101V3.95312H36.8828C38.4434 3.95312 39.958 4.13672 41.4268 4.50391C42.8955 4.87109 44.2725 5.39893 45.5576 6.0874C46.8581 6.76058 48.0438 7.58675 49.1147 8.56592C50.201 9.54508 51.1266 10.6466 51.8916 11.8706C52.6719 13.0793 53.2762 14.4103 53.7046 15.8638C54.133 17.3019 54.3472 18.8242 54.3472 20.4307ZM45.0986 20.4307C45.0986 18.6406 44.8768 16.9424 44.4331 15.3359C44.0047 13.7142 43.3315 12.2913 42.4136 11.0674C41.4956 9.84342 40.3252 8.87191 38.9023 8.15283C37.4948 7.43376 35.8042 7.07422 33.8306 7.07422H31.4209V33.7871H33.8306C35.7736 33.7871 37.4489 33.4276 38.8564 32.7085C40.2793 31.9741 41.4497 30.995 42.3677 29.771C43.3009 28.5317 43.9894 27.1089 44.4331 25.5024C44.8768 23.896 45.0986 22.2054 45.0986 20.4307ZM64.1694 37H59.9468V3.95312H65.8677L85.9482 26.6499V3.95312H90.1479V37H84.2271L64.1694 14.3262V37ZM141.371 28.0269C141.371 28.9601 141.218 29.8322 140.912 30.6431C140.606 31.4539 140.185 32.196 139.649 32.8691C139.114 33.527 138.487 34.116 137.768 34.6362C137.064 35.1564 136.299 35.5924 135.473 35.9443C134.662 36.2962 133.82 36.564 132.948 36.7476C132.076 36.9159 131.219 37 130.378 37H110.94V3.95312H128.703C129.483 3.95312 130.301 4.01432 131.158 4.13672C132.015 4.24382 132.849 4.41976 133.66 4.66455C134.486 4.90934 135.266 5.23063 136 5.62842C136.75 6.0262 137.4 6.51579 137.951 7.09717C138.517 7.66325 138.961 8.32113 139.282 9.0708C139.619 9.82048 139.787 10.6772 139.787 11.6411C139.787 12.5591 139.604 13.3929 139.236 14.1426C138.869 14.8923 138.372 15.5654 137.745 16.1621C137.133 16.7435 136.421 17.2637 135.61 17.7227C134.815 18.1663 133.973 18.5565 133.086 18.8931C134.203 19.1991 135.258 19.6045 136.253 20.1094C137.263 20.6143 138.142 21.2339 138.892 21.9683C139.657 22.7026 140.261 23.5747 140.705 24.5845C141.149 25.5789 141.371 26.7264 141.371 28.0269ZM130.539 12.4443C130.539 10.5778 130.041 9.21615 129.047 8.35938C128.068 7.5026 126.668 7.07422 124.847 7.07422H120.051V17.7915H124.067C124.893 17.7915 125.696 17.6921 126.477 17.4932C127.257 17.279 127.945 16.9577 128.542 16.5293C129.154 16.0856 129.636 15.5272 129.988 14.854C130.355 14.1808 130.539 13.3776 130.539 12.4443ZM132.145 27.4531C132.145 26.5505 132.03 25.709 131.801 24.9287C131.571 24.1331 131.219 23.4523 130.745 22.8862C130.271 22.3049 129.674 21.8535 128.955 21.5322C128.251 21.1956 127.417 21.0273 126.454 21.0273H120.051V33.7871H125.65C126.584 33.7871 127.448 33.6341 128.244 33.3281C129.039 33.0221 129.728 32.5938 130.309 32.043C130.89 31.4922 131.342 30.8267 131.663 30.0464C131.984 29.2661 132.145 28.4017 132.145 27.4531ZM172.742 37H164.985V33.833C164.067 35.0876 162.958 36.0208 161.658 36.6328C160.373 37.2295 158.957 37.5278 157.412 37.5278C155.393 37.5278 153.587 37.1683 151.996 36.4492C150.405 35.7301 149.059 34.751 147.957 33.5117C146.855 32.2572 146.014 30.7884 145.433 29.1055C144.851 27.4225 144.561 25.6172 144.561 23.6895C144.561 21.7617 144.851 19.9564 145.433 18.2734C146.014 16.5905 146.855 15.1294 147.957 13.8901C149.059 12.6356 150.405 11.6488 151.996 10.9297C153.587 10.2106 155.393 9.85107 157.412 9.85107C158.437 9.85107 159.409 10.0041 160.327 10.3101C161.26 10.616 162.109 11.0521 162.874 11.6182C163.654 12.1689 164.335 12.8421 164.917 13.6377C165.513 14.418 165.98 15.29 166.316 16.2539L169.759 10.4937H172.742V37ZM164.939 23.6895C164.939 23.001 164.901 22.2743 164.825 21.5093C164.764 20.7443 164.649 19.987 164.48 19.2373C164.312 18.4876 164.075 17.7762 163.769 17.103C163.478 16.4146 163.096 15.8102 162.622 15.29C162.163 14.7546 161.604 14.3338 160.946 14.0278C160.288 13.7218 159.523 13.5688 158.651 13.5688C157.779 13.5688 157.022 13.7295 156.379 14.0508C155.737 14.3568 155.186 14.7775 154.727 15.313C154.268 15.8332 153.886 16.4375 153.58 17.126C153.289 17.8145 153.059 18.5335 152.891 19.2832C152.723 20.0329 152.6 20.7902 152.524 21.5552C152.463 22.3049 152.432 23.0163 152.432 23.6895C152.432 24.3626 152.463 25.0817 152.524 25.8467C152.6 26.6117 152.723 27.369 152.891 28.1187C153.059 28.8683 153.289 29.5874 153.58 30.2759C153.886 30.9644 154.268 31.5763 154.727 32.1118C155.186 32.632 155.737 33.0527 156.379 33.374C157.022 33.68 157.779 33.833 158.651 33.833C159.447 33.833 160.151 33.6724 160.763 33.3511C161.39 33.0145 161.933 32.5708 162.392 32.02C162.866 31.4692 163.264 30.842 163.585 30.1382C163.907 29.4344 164.167 28.7077 164.366 27.958C164.565 27.2083 164.71 26.4663 164.802 25.7319C164.894 24.9823 164.939 24.3014 164.939 23.6895ZM206.34 21.8076C206.34 23.5977 206.118 25.4642 205.674 27.4072C205.246 29.3503 204.642 31.255 203.861 33.1216C203.081 34.9881 202.148 36.7399 201.062 38.377C199.975 40.0293 198.782 41.4521 197.481 42.6455L194.567 41.062C194.98 40.297 195.37 39.4403 195.737 38.4917C196.104 37.5431 196.433 36.541 196.724 35.4854C197.03 34.4144 197.298 33.3128 197.527 32.1807C197.772 31.0485 197.971 29.9316 198.124 28.8301C198.292 27.7132 198.415 26.6346 198.491 25.5942C198.583 24.5386 198.629 23.5594 198.629 22.6567C198.629 22.0601 198.606 21.4251 198.56 20.752C198.514 20.0635 198.415 19.3826 198.262 18.7095C198.124 18.021 197.933 17.3631 197.688 16.7358C197.443 16.1086 197.114 15.5578 196.701 15.0835C196.303 14.6092 195.814 14.2267 195.232 13.936C194.666 13.6453 193.993 13.5 193.213 13.5C192.448 13.5 191.767 13.6759 191.17 14.0278C190.574 14.3644 190.046 14.8158 189.587 15.3818C189.128 15.9326 188.73 16.5675 188.394 17.2866C188.072 18.0057 187.805 18.7477 187.59 19.5127C187.391 20.2624 187.246 21.0044 187.154 21.7388C187.062 22.4731 187.017 23.131 187.017 23.7124V37H179.237V10.4937H182.22L185.777 16.667C186.206 15.6419 186.741 14.7087 187.384 13.8672C188.026 13.0257 188.753 12.3066 189.564 11.71C190.375 11.1133 191.27 10.6543 192.249 10.333C193.243 10.0117 194.314 9.85107 195.462 9.85107C197.298 9.85107 198.897 10.1494 200.258 10.7461C201.62 11.3428 202.752 12.1766 203.655 13.2476C204.557 14.3032 205.231 15.5654 205.674 17.0342C206.118 18.4876 206.34 20.0788 206.34 21.8076ZM219.214 37H211.458V0.740234H219.214V24.5386C220.484 23.6206 221.731 22.6108 222.955 21.5093C224.194 20.4077 225.372 19.2526 226.489 18.0439C227.606 16.82 228.639 15.5731 229.587 14.3032C230.551 13.0334 231.393 11.7635 232.112 10.4937H237.39C236.319 12.299 235.049 14.1043 233.581 15.9097C232.112 17.6997 230.513 19.4132 228.784 21.0503L237.482 37H228.922L222.749 25.9385C221.601 26.7188 220.423 27.4378 219.214 28.0957V37Z" fill="white"/>
</svg>
