<svg width="72" height="50" viewBox="0 0 72 50" fill="none" xmlns="http://www.w3.org/2000/svg">
<rect x="12.2" y="1.20001" width="45.8" height="47.6" stroke="#45A76C"/>
<rect x="15.3" y="4.30001" width="39.6" height="41.4" fill="#45A76C"/>
<path d="M27.5801 20.6516C27.5801 21.1945 27.5098 21.7473 27.3691 22.3098C27.2324 22.8684 27.0391 23.4094 26.7891 23.9328C26.543 24.4602 26.2461 24.9524 25.8984 25.4094C25.5508 25.8664 25.168 26.2649 24.75 26.6047L23.8477 26.0598C24.082 25.7395 24.2871 25.3762 24.4629 24.9699C24.6387 24.5637 24.7852 24.1418 24.9023 23.7043C25.0195 23.2668 25.1074 22.8274 25.166 22.3859C25.2246 21.9445 25.2539 21.5246 25.2539 21.1262V14.8625H27.5801V20.6516ZM37.6348 19.0695C37.6348 19.4797 37.5801 19.8703 37.4707 20.2414C37.3613 20.6086 37.207 20.9484 37.0078 21.2609C36.8125 21.5734 36.5781 21.8567 36.3047 22.1106C36.0312 22.3606 35.7285 22.5734 35.3965 22.7492C35.0684 22.925 34.7148 23.0617 34.3359 23.1594C33.9609 23.2531 33.5742 23.3 33.1758 23.3H29.4551V14.8625H33.1758C33.5742 14.8625 33.9609 14.9094 34.3359 15.0031C34.7109 15.0969 35.0625 15.2317 35.3906 15.4074C35.7227 15.5793 36.0254 15.7902 36.2988 16.0402C36.5762 16.2902 36.8125 16.5715 37.0078 16.884C37.207 17.1926 37.3613 17.5324 37.4707 17.9035C37.5801 18.2707 37.6348 18.6594 37.6348 19.0695ZM35.2734 19.0695C35.2734 18.6125 35.2168 18.1789 35.1035 17.7688C34.9941 17.3547 34.8223 16.9914 34.5879 16.6789C34.3535 16.3664 34.0547 16.1184 33.6914 15.9348C33.332 15.7512 32.9004 15.6594 32.3965 15.6594H31.7812V22.4797H32.3965C32.8926 22.4797 33.3203 22.3879 33.6797 22.2043C34.043 22.0168 34.3418 21.7668 34.5762 21.4543C34.8145 21.1379 34.9902 20.7746 35.1035 20.3645C35.2168 19.9543 35.2734 19.5227 35.2734 19.0695ZM40.1426 23.3H39.0645V14.8625H40.5762L45.7031 20.6574V14.8625H46.7754V23.3H45.2637L40.1426 17.5109V23.3ZM27.9902 35.009C27.9902 35.2473 27.9512 35.4699 27.873 35.677C27.7949 35.884 27.6875 36.0734 27.5508 36.2453C27.4141 36.4133 27.2539 36.5637 27.0703 36.6965C26.8906 36.8293 26.6953 36.9406 26.4844 37.0305C26.2773 37.1203 26.0625 37.1887 25.8398 37.2356C25.6172 37.2785 25.3984 37.3 25.1836 37.3H20.2207V28.8625H24.7559C24.9551 28.8625 25.1641 28.8781 25.3828 28.9094C25.6016 28.9367 25.8145 28.9817 26.0215 29.0442C26.2324 29.1067 26.4316 29.1887 26.6191 29.2902C26.8105 29.3918 26.9766 29.5168 27.1172 29.6652C27.2617 29.8098 27.375 29.9777 27.457 30.1692C27.543 30.3606 27.5859 30.5793 27.5859 30.8254C27.5859 31.0598 27.5391 31.2727 27.4453 31.4641C27.3516 31.6555 27.2246 31.8274 27.0645 31.9797C26.9082 32.1281 26.7266 32.2609 26.5195 32.3781C26.3164 32.4914 26.1016 32.591 25.875 32.677C26.1602 32.7551 26.4297 32.8586 26.6836 32.9875C26.9414 33.1164 27.166 33.2746 27.3574 33.4621C27.5527 33.6496 27.707 33.8723 27.8203 34.1301C27.9336 34.384 27.9902 34.677 27.9902 35.009ZM25.2246 31.0305C25.2246 30.5539 25.0977 30.2063 24.8438 29.9875C24.5938 29.7688 24.2363 29.6594 23.7715 29.6594H22.5469V32.3957H23.5723C23.7832 32.3957 23.9883 32.3703 24.1875 32.3195C24.3867 32.2649 24.5625 32.1828 24.7148 32.0734C24.8711 31.9602 24.9941 31.8176 25.084 31.6457C25.1777 31.4738 25.2246 31.2688 25.2246 31.0305ZM25.6348 34.8625C25.6348 34.632 25.6055 34.4172 25.5469 34.218C25.4883 34.0149 25.3984 33.841 25.2773 33.6965C25.1562 33.5481 25.0039 33.4328 24.8203 33.3508C24.6406 33.2649 24.4277 33.2219 24.1816 33.2219H22.5469V36.4797H23.9766C24.2148 36.4797 24.4355 36.4406 24.6387 36.3625C24.8418 36.2844 25.0176 36.175 25.166 36.0344C25.3145 35.8938 25.4297 35.7238 25.5117 35.5246C25.5938 35.3254 25.6348 35.1047 25.6348 34.8625ZM36 37.3H34.0195V36.4914C33.7852 36.8117 33.502 37.05 33.1699 37.2063C32.8418 37.3586 32.4805 37.4348 32.0859 37.4348C31.5703 37.4348 31.1094 37.343 30.7031 37.1594C30.2969 36.9758 29.9531 36.7258 29.6719 36.4094C29.3906 36.0891 29.1758 35.7141 29.0273 35.2844C28.8789 34.8547 28.8047 34.3938 28.8047 33.9016C28.8047 33.4094 28.8789 32.9484 29.0273 32.5188C29.1758 32.0891 29.3906 31.716 29.6719 31.3996C29.9531 31.0793 30.2969 30.8274 30.7031 30.6438C31.1094 30.4602 31.5703 30.3684 32.0859 30.3684C32.3477 30.3684 32.5957 30.4074 32.8301 30.4856C33.0684 30.5637 33.2852 30.675 33.4805 30.8195C33.6797 30.9602 33.8535 31.132 34.002 31.3352C34.1543 31.5344 34.2734 31.757 34.3594 32.0031L35.2383 30.5324H36V37.3ZM34.0078 33.9016C34.0078 33.7258 33.998 33.5402 33.9785 33.3449C33.9629 33.1496 33.9336 32.9563 33.8906 32.7649C33.8477 32.5734 33.7871 32.3918 33.709 32.2199C33.6348 32.0442 33.5371 31.8899 33.416 31.757C33.2988 31.6203 33.1562 31.5129 32.9883 31.4348C32.8203 31.3567 32.625 31.3176 32.4023 31.3176C32.1797 31.3176 31.9863 31.3586 31.8223 31.4406C31.6582 31.5188 31.5176 31.6262 31.4004 31.7629C31.2832 31.8957 31.1855 32.05 31.1074 32.2258C31.0332 32.4016 30.9746 32.5852 30.9316 32.7766C30.8887 32.968 30.8574 33.1613 30.8379 33.3567C30.8223 33.5481 30.8145 33.7297 30.8145 33.9016C30.8145 34.0734 30.8223 34.257 30.8379 34.4524C30.8574 34.6477 30.8887 34.841 30.9316 35.0324C30.9746 35.2238 31.0332 35.4074 31.1074 35.5832C31.1855 35.759 31.2832 35.9152 31.4004 36.052C31.5176 36.1848 31.6582 36.2922 31.8223 36.3742C31.9863 36.4524 32.1797 36.4914 32.4023 36.4914C32.6055 36.4914 32.7852 36.4504 32.9414 36.3684C33.1016 36.2824 33.2402 36.1692 33.3574 36.0285C33.4785 35.8879 33.5801 35.7277 33.6621 35.5481C33.7441 35.3684 33.8105 35.1828 33.8613 34.9914C33.9121 34.8 33.9492 34.6106 33.9727 34.4231C33.9961 34.2317 34.0078 34.0578 34.0078 33.9016ZM44.5781 33.4211C44.5781 33.8781 44.5215 34.3547 44.4082 34.8508C44.2988 35.3469 44.1445 35.8332 43.9453 36.3098C43.7461 36.7863 43.5078 37.2336 43.2305 37.6516C42.9531 38.0734 42.6484 38.4367 42.3164 38.7414L41.5723 38.3371C41.6777 38.1418 41.7773 37.9231 41.8711 37.6809C41.9648 37.4387 42.0488 37.1828 42.123 36.9133C42.2012 36.6399 42.2695 36.3586 42.3281 36.0695C42.3906 35.7805 42.4414 35.4953 42.4805 35.2141C42.5234 34.9289 42.5547 34.6535 42.5742 34.3879C42.5977 34.1184 42.6094 33.8684 42.6094 33.6379C42.6094 33.4856 42.6035 33.3234 42.5918 33.1516C42.5801 32.9758 42.5547 32.802 42.5156 32.6301C42.4805 32.4543 42.4316 32.2863 42.3691 32.1262C42.3066 31.966 42.2227 31.8254 42.1172 31.7043C42.0156 31.5832 41.8906 31.4856 41.7422 31.4113C41.5977 31.3371 41.4258 31.3 41.2266 31.3C41.0312 31.3 40.8574 31.3449 40.7051 31.4348C40.5527 31.5207 40.418 31.6359 40.3008 31.7805C40.1836 31.9211 40.082 32.0832 39.9961 32.2668C39.9141 32.4504 39.8457 32.6399 39.791 32.8352C39.7402 33.0266 39.7031 33.216 39.6797 33.4035C39.6562 33.591 39.6445 33.759 39.6445 33.9074V37.3H37.6582V30.5324H38.4199L39.3281 32.1086C39.4375 31.8469 39.5742 31.6086 39.7383 31.3938C39.9023 31.1789 40.0879 30.9953 40.2949 30.843C40.502 30.6906 40.7305 30.5734 40.9805 30.4914C41.2344 30.4094 41.5078 30.3684 41.8008 30.3684C42.2695 30.3684 42.6777 30.4445 43.0254 30.5969C43.373 30.7492 43.6621 30.9621 43.8926 31.2356C44.123 31.5051 44.2949 31.8274 44.4082 32.2024C44.5215 32.5734 44.5781 32.9797 44.5781 33.4211ZM47.8652 37.3H45.8848V28.0422H47.8652V34.1184C48.1895 33.884 48.5078 33.6262 48.8203 33.3449C49.1367 33.0637 49.4375 32.7688 49.7227 32.4602C50.0078 32.1477 50.2715 31.8293 50.5137 31.5051C50.7598 31.1809 50.9746 30.8567 51.1582 30.5324H52.5059C52.2324 30.9934 51.9082 31.4543 51.5332 31.9152C51.1582 32.3723 50.75 32.8098 50.3086 33.2277L52.5293 37.3H50.3438L48.7676 34.4758C48.4746 34.675 48.1738 34.8586 47.8652 35.0266V37.3Z" fill="white"/>
</svg>
